<?xml version="1.0" encoding="iso-8859-1"?>
<!-- Generator: Adobe Illustrator 19.0.0, SVG Export Plug-In . SVG Version: 6.00 Build 0)  -->
<svg version="1.1" id="Layer_1" xmlns="http://www.w3.org/2000/svg" xmlns:xlink="http://www.w3.org/1999/xlink" x="0px" y="0px"
	 viewBox="0 0 512 512" style="enable-background:new 0 0 512 512;" xml:space="preserve">
<g>
	<path style="fill:#B3404A;" d="M344.584,512c-60.309,0-109.375-49.066-109.375-109.377c0-55.255,41.311-101.933,96.093-108.574
		c8.277-0.995,15.822,4.9,16.827,13.19c1.005,8.288-4.9,15.822-13.189,16.828c-39.62,4.803-69.496,38.576-69.496,78.558
		c0,43.637,35.501,79.141,79.14,79.141s79.14-35.502,79.14-79.141c0-16.941-5.273-33.093-15.248-46.709
		c-4.934-6.735-3.474-16.196,3.261-21.13c6.736-4.933,16.194-3.474,21.13,3.262c13.798,18.835,21.092,41.165,21.092,64.577
		C453.959,462.934,404.893,512,344.584,512z"/>
	<path style="fill:#B3404A;" d="M365.964,402.969l16.1-16.099c5.903-5.903,5.905-15.476,0-21.381c-5.903-5.9-15.476-5.902-21.379,0
		l-16.1,16.1l-16.1-16.1c-5.903-5.902-15.476-5.902-21.379,0c-5.903,5.903-5.903,15.476,0,21.381l16.1,16.099l-16.1,16.099
		c-5.903,5.903-5.905,15.476,0,21.381c2.952,2.951,6.821,4.428,10.69,4.428s7.739-1.477,10.69-4.428l16.1-16.1l16.1,16.1
		c2.952,2.951,6.821,4.428,10.69,4.428s7.739-1.477,10.69-4.428c5.903-5.903,5.903-15.476,0-21.381L365.964,402.969z"/>
</g>
<path style="fill:#F4B2B0;" d="M108.334,169.679c0,0,48.18-21.351,110.206-28.119c9.932-1.084,51.042-30.391,51.303-30.583
	c26.999-19.818,47.974,58.702,47.974,58.702c0.242-1.386,0.481-2.812,0.714-4.271c0.104-0.65,0.207-1.308,0.308-1.97
	c2.346-15.246,11.688-33.714,11.621-49.166c-0.044-10.077-0.872-18.873-2.842-24.655c-17.933-52.673-61.042-35.318-61.042-35.318
	s-30.069-40.385-52.913-39.147c-0.254-0.008-0.511-0.035-0.762-0.033v0.092c-2.2,0.212-4.33,0.813-6.352,1.902
	c-59.03,31.732-66.85,27.762-80.094,32.362c-32.111,11.154-32.954,8.171-28.908,32.92
	C104.307,123.751,107.07,153.866,108.334,169.679z"/>
<path style="fill:#B3404A;" d="M341.929,84.745c-14.309-42.027-43.25-48.303-59.228-48.303c-3.817,0-7.325,0.354-10.362,0.848
	C260.861,23.703,237.561,0.006,214.7,0.006c-0.319,0-0.636,0.005-0.952,0.014c-0.331-0.014-0.697-0.024-1.027-0.017
	c-1.194,0.014-2.355,0.168-3.466,0.446c-3.479,0.571-6.788,1.693-9.867,3.349c-43.498,23.384-57.719,26.489-67.13,28.542
	c-3.365,0.733-6.844,1.494-10.764,2.856c-3.509,1.22-6.64,2.266-9.424,3.197c-13.727,4.593-22.011,7.365-27.333,15.452
	c-5.748,8.732-4.222,18.069-2.11,30.991c4.865,29.762,8.434,58.608,10.613,85.748v18.74c0,30.814,11.692,58.944,30.861,80.205
	c-39.927,19.511-66.06,62.153-66.06,111.866V492.34c0,8.348,6.768,15.118,15.118,15.118h139.993c8.35,0,15.118-6.77,15.118-15.118
	s-6.768-15.118-15.118-15.118H88.276v-95.828c0-43.911,24.819-79.214,62.359-89.792c18.215,11.175,39.625,17.632,62.516,17.632
	c66.12,0,119.912-53.792,119.912-119.911v-19.166c0.132-0.786,0.265-1.554,0.393-2.358l0.324-2.062
	c0.794-5.164,2.75-11.349,4.821-17.898c3.453-10.921,7.024-22.212,6.975-33.632C345.521,101.427,344.329,91.791,341.929,84.745z
	 M121.665,67.066c2.881-0.966,6.12-2.048,9.751-3.309c2.212-0.768,4.342-1.232,7.29-1.876c11.719-2.558,27.77-6.062,74.999-31.452
	c0.079-0.042,0.242-0.13,0.639-0.168c0.045-0.005,0.089-0.009,0.133-0.014c0,0,0.002,0,0.003,0l0.221-0.006
	c8.85,0,28.057,17.443,39.749,33.087c4.159,5.586,11.284,7.727,17.694,5.03c0.606-0.216,4.936-1.678,10.557-1.678
	c14.224,0,24.235,9.098,30.607,27.811c0.594,1.743,1.98,7.167,2.035,19.851c0.009,1.991-0.237,4.189-0.662,6.522
	c-10.61-18.953-22.457-28.21-36.01-28.21c-6.207,0-12.155,2.041-17.694,6.079c-14.453,10.366-38.14,25.77-44.686,27.869
	c-39.757,4.401-73.72,14.443-94.025,21.54c-0.26-0.608-0.57-1.188-0.903-1.752c-2.209-21.425-5.178-43.67-8.897-66.429
	c-0.479-2.936-1.081-6.611-1.359-9.186C113.696,69.733,117.728,68.383,121.665,67.066z M213.151,278.998
	c-49.448,0-89.677-40.228-89.677-89.675v-9.433c16.273-6.168,52.975-18.528,96.705-23.301c15.213-1.661,56.121-31.596,58.551-33.384
	c1.899,1.306,7.684,6.464,15.317,24.255c4.599,10.715,7.733,21.113,8.78,24.76v17.103
	C302.829,238.77,262.599,278.998,213.151,278.998z"/>
<g>
</g>
<g>
</g>
<g>
</g>
<g>
</g>
<g>
</g>
<g>
</g>
<g>
</g>
<g>
</g>
<g>
</g>
<g>
</g>
<g>
</g>
<g>
</g>
<g>
</g>
<g>
</g>
<g>
</g>
</svg>
